<svg width="28" height="29" viewBox="0 0 28 29" fill="none" xmlns="http://www.w3.org/2000/svg">
<g clip-path="url(#clip0_3_5156)">
<path d="M27.1195 9.43633C27.2945 9.9291 27.1469 10.4785 26.7695 10.8297L24.4015 13.0613C24.4617 13.5314 24.4945 14.0129 24.4945 14.5C24.4945 14.9871 24.4617 15.4686 24.4015 15.9387L26.7695 18.1703C27.1469 18.5215 27.2945 19.0709 27.1195 19.5637C26.8789 20.2377 26.589 20.8834 26.2554 21.5064L25.9984 21.9652C25.6375 22.5883 25.2328 23.1773 24.7898 23.7324C24.4672 24.1402 23.9312 24.2762 23.45 24.1176L20.4039 23.115C19.6711 23.6984 18.8617 24.1855 17.9976 24.5537L17.314 27.7879C17.2047 28.3033 16.8219 28.7111 16.3187 28.7961C15.564 28.9264 14.7875 28.9943 13.9945 28.9943C13.2015 28.9943 12.425 28.9264 11.6703 28.7961C11.1672 28.7111 10.7844 28.3033 10.675 27.7879L9.99138 24.5537C9.12732 24.1855 8.31795 23.6984 7.58513 23.115L4.54451 24.1232C4.06326 24.2818 3.52732 24.1402 3.20466 23.7381C2.7617 23.183 2.35701 22.5939 1.99607 21.9709L1.73904 21.5121C1.40545 20.8891 1.1156 20.2434 0.874977 19.5693C0.699977 19.0766 0.847634 18.5271 1.22498 18.176L3.59295 15.9443C3.53279 15.4686 3.49998 14.9871 3.49998 14.5C3.49998 14.0129 3.53279 13.5314 3.59295 13.0613L1.22498 10.8297C0.847634 10.4785 0.699977 9.9291 0.874977 9.43633C1.1156 8.76231 1.40545 8.1166 1.73904 7.49356L1.99607 7.03477C2.35701 6.41172 2.7617 5.82266 3.20466 5.26758C3.52732 4.85977 4.06326 4.72383 4.54451 4.88242L7.5906 5.88496C8.32341 5.30156 9.13279 4.81445 9.99685 4.44629L10.6804 1.21211C10.7898 0.69668 11.1726 0.288867 11.6758 0.203906C12.4304 0.0679687 13.207 0 14 0C14.7929 0 15.5695 0.0679688 16.3242 0.198242C16.8273 0.283203 17.2101 0.691016 17.3195 1.20645L18.0031 4.44063C18.8672 4.80879 19.6765 5.2959 20.4094 5.8793L23.4554 4.87676C23.9367 4.71816 24.4726 4.85977 24.7953 5.26191C25.2383 5.81699 25.6429 6.40605 26.0039 7.0291L26.2609 7.48789C26.5945 8.11094 26.8844 8.75664 27.125 9.43066L27.1195 9.43633ZM14 19.0312C15.1603 19.0312 16.2731 18.5539 17.0936 17.7041C17.914 16.8543 18.375 15.7018 18.375 14.5C18.375 13.2982 17.914 12.1457 17.0936 11.2959C16.2731 10.4461 15.1603 9.96875 14 9.96875C12.8397 9.96875 11.7269 10.4461 10.9064 11.2959C10.0859 12.1457 9.62498 13.2982 9.62498 14.5C9.62498 15.7018 10.0859 16.8543 10.9064 17.7041C11.7269 18.5539 12.8397 19.0312 14 19.0312Z" fill="#F4F6FC"/>
</g>
<defs>
<clipPath id="clip0_3_5156">
<rect width="28" height="29" fill="white"/>
</clipPath>
</defs>
</svg>
