<svg width="19" height="28" viewBox="0 0 19 28" fill="none" xmlns="http://www.w3.org/2000/svg">
<path d="M15.3358 20.7029V17.599C17.284 17.599 18.8631 16.0197 18.8631 14.0717C18.8631 12.1237 17.2838 10.5444 15.3358 10.5444V8.27108C17.4889 2.20324 17.3664 2.59063 17.398 2.39191C17.5184 1.63927 16.9362 0.980972 16.1965 0.980972H3.0393C2.29918 0.980972 1.71758 1.63968 1.83776 2.39191C1.86934 2.59063 1.74711 2.20303 3.90002 8.27108V10.5444C1.95178 10.5444 0.372681 12.1237 0.372681 14.0717C0.372681 16.0197 1.95199 17.599 3.90002 17.599V20.7029C1.95178 20.7029 0.372681 22.2822 0.372681 24.2302C0.372681 26.1783 1.95199 27.7576 3.90002 27.7576V27.7889H15.3356V27.7576C17.2838 27.7576 18.8629 26.1783 18.8629 24.2302C18.8629 22.2822 17.2838 20.7029 15.3358 20.7029Z" fill="#F4F6FC"/>
</svg>
