<svg width="65" height="85" viewBox="0 0 65 85" fill="none" xmlns="http://www.w3.org/2000/svg">
<path d="M64.0297 69.3635C63.8917 68.4884 63.1376 67.844 62.2519 67.844H21.2052V19.9889H41.1689V26.1608C41.1689 27.3627 42.1432 28.3372 43.3454 28.3372H61.3502C62.0854 28.3372 62.7708 27.9661 63.1727 27.3504C63.5747 26.7348 63.6382 25.9577 63.3423 25.2847L60.6611 19.1885C55.5323 7.5278 43.9977 1.52588e-05 31.2591 1.52588e-05H19.8404C9.42471 1.52588e-05 0.981049 8.44368 0.981049 18.8594V65.3382C0.981049 71.3939 3.87818 77.0842 8.77503 80.6466C13.6795 84.2144 19.9862 85.211 25.7393 83.3495L62.8058 71.3564C63.6487 71.0838 64.1677 70.2385 64.0297 69.3635Z" fill="#F4F6FC"/>
</svg>
