<svg width="19" height="37" viewBox="0 0 19 37" fill="none" xmlns="http://www.w3.org/2000/svg">
<mask id="mask0_3_2088" style="mask-type:luminance" maskUnits="userSpaceOnUse" x="5" y="0" width="8" height="37">
<path d="M5.74088 0H12.8217V36.0645H5.74088V0Z" fill="white"/>
</mask>
<g mask="url(#mask0_3_2088)">
<mask id="mask1_3_2088" style="mask-type:luminance" maskUnits="userSpaceOnUse" x="5" y="0" width="8" height="37">
<path d="M7.40025 0H11.1623C12.0788 0 12.8217 0.762474 12.8217 1.70304V34.3614C12.8217 35.302 12.0788 36.0645 11.1623 36.0645H7.40025C6.4838 36.0645 5.74088 35.302 5.74088 34.3614V1.70304C5.74088 0.762474 6.4838 0 7.40025 0Z" fill="white"/>
</mask>
<g mask="url(#mask1_3_2088)">
<path d="M5.74088 0H12.8217V36.0524H5.74088V0Z" fill="#9999A7"/>
</g>
</g>
<mask id="mask2_3_2088" style="mask-type:luminance" maskUnits="userSpaceOnUse" x="2" y="5" width="4" height="11">
<path d="M2.08676 5.14148H5.31417V15.993H2.08676V5.14148Z" fill="white"/>
</mask>
<g mask="url(#mask2_3_2088)">
<path d="M2.08676 5.14148H5.31417V15.997H2.08676V5.14148Z" fill="#9999A7"/>
</g>
<mask id="mask3_3_2088" style="mask-type:luminance" maskUnits="userSpaceOnUse" x="0" y="7" width="4" height="7">
<path d="M0 7.27344H3.22724V13.8609H0V7.27344Z" fill="white"/>
</mask>
<g mask="url(#mask3_3_2088)">
<path d="M0 7.27344H3.22724V13.8592H0V7.27344Z" fill="#9999A7"/>
</g>
<mask id="mask4_3_2088" style="mask-type:luminance" maskUnits="userSpaceOnUse" x="13" y="5" width="4" height="11">
<path d="M13.2438 5.14111H16.4712V15.9926H13.2438V5.14111Z" fill="white"/>
</mask>
<g mask="url(#mask4_3_2088)">
<path d="M16.4712 15.9925H13.2438V5.13702H16.4712V15.9925Z" fill="#9999A7"/>
</g>
<mask id="mask5_3_2088" style="mask-type:luminance" maskUnits="userSpaceOnUse" x="15" y="7" width="4" height="7">
<path d="M15.3307 7.27325H18.5581V13.8607H15.3307V7.27325Z" fill="white"/>
</mask>
<g mask="url(#mask5_3_2088)">
<path d="M18.5581 13.8607H15.3307V7.27496H18.5581V13.8607Z" fill="#9999A7"/>
</g>
<mask id="mask6_3_2088" style="mask-type:luminance" maskUnits="userSpaceOnUse" x="2" y="21" width="4" height="12">
<path d="M2.08676 21.2105H5.31417V32.0618H2.08676V21.2105Z" fill="white"/>
</mask>
<g mask="url(#mask6_3_2088)">
<path d="M2.08676 21.2105H5.31417V32.066H2.08676V21.2105Z" fill="#9999A7"/>
</g>
<mask id="mask7_3_2088" style="mask-type:luminance" maskUnits="userSpaceOnUse" x="0" y="23" width="4" height="7">
<path d="M0 23.3424H3.22724V29.9299H0V23.3424Z" fill="white"/>
</mask>
<g mask="url(#mask7_3_2088)">
<path d="M0 23.3424H3.22724V29.9281H0V23.3424Z" fill="#9999A7"/>
</g>
<mask id="mask8_3_2088" style="mask-type:luminance" maskUnits="userSpaceOnUse" x="13" y="21" width="4" height="12">
<path d="M13.2438 21.2101H16.4712V32.0617H13.2438V21.2101Z" fill="white"/>
</mask>
<g mask="url(#mask8_3_2088)">
<path d="M16.4712 32.0616H13.2438V21.2059H16.4712V32.0616Z" fill="#9999A7"/>
</g>
<mask id="mask9_3_2088" style="mask-type:luminance" maskUnits="userSpaceOnUse" x="15" y="23" width="4" height="7">
<path d="M15.3307 23.3423H18.5581V29.9297H15.3307V23.3423Z" fill="white"/>
</mask>
<g mask="url(#mask9_3_2088)">
<path d="M18.5581 29.9297H15.3307V23.344H18.5581V29.9297Z" fill="#9999A7"/>
</g>
</svg>
