<svg width="116" height="93" viewBox="0 0 116 93" fill="none" xmlns="http://www.w3.org/2000/svg">
<path d="M107.721 46.5639L115.744 42.2156L92.9152 0.0969238L84.8926 4.4452L91.415 16.4792L77.7765 23.8712L72.1084 19.1586L70.1029 20.2456L75.771 24.9582L69.7539 28.2195L64.0858 23.5069L62.0803 24.5939L67.7483 29.3065L61.7312 32.5678L56.0632 27.8552L54.0576 28.9422L59.7257 33.6548L53.7086 36.9161L48.0406 32.2035L46.035 33.2905L51.7028 38.0032L45.686 41.2643L40.0179 36.5517L38.0124 37.6388L43.6802 42.3515L37.6633 45.6126L31.9953 40.9L29.9897 41.987L35.6576 46.6997L29.6407 49.9609L23.9727 45.2483L21.9671 46.3353L27.6349 51.048L16.2027 57.2443L12.1527 71.4404L25.9863 75.2951L44.6391 65.1853L50.3069 69.898L52.3127 68.8109L46.6446 64.0983L52.6617 60.837L58.3296 65.5497L60.3353 64.4626L54.6673 59.75L60.6844 56.4887L66.3522 61.2014L68.358 60.1143L62.6899 55.4017L68.7068 52.1405L74.3748 56.8532L76.3806 55.766L70.7125 51.0534L76.7294 47.7923L82.3975 52.5049L84.4032 51.4177L78.7352 46.7051L84.752 43.444L90.4201 48.1566L92.4259 47.0695L86.7578 42.3569L92.7747 39.0957L98.4427 43.8083L100.448 42.7212L94.7804 38.0086L101.199 34.53L107.721 46.5639Z" fill="#9999A7"/>
</svg>
