<svg width="28" height="26" viewBox="0 0 28 26" fill="none" xmlns="http://www.w3.org/2000/svg">
<path d="M8.15391 2.54375L7.58516 4.25H3.5C1.56953 4.25 0 5.81953 0 7.75V21.75C0 23.6805 1.56953 25.25 3.5 25.25H24.5C26.4305 25.25 28 23.6805 28 21.75V7.75C28 5.81953 26.4305 4.25 24.5 4.25H20.4148L19.8461 2.54375C19.4906 1.47188 18.4898 0.75 17.3578 0.75H10.6422C9.51016 0.75 8.50938 1.47188 8.15391 2.54375ZM14 9.5C15.3924 9.5 16.7277 10.0531 17.7123 11.0377C18.6969 12.0223 19.25 13.3576 19.25 14.75C19.25 16.1424 18.6969 17.4777 17.7123 18.4623C16.7277 19.4469 15.3924 20 14 20C12.6076 20 11.2723 19.4469 10.2877 18.4623C9.30312 17.4777 8.75 16.1424 8.75 14.75C8.75 13.3576 9.30312 12.0223 10.2877 11.0377C11.2723 10.0531 12.6076 9.5 14 9.5Z" fill="#9999A7"/>
</svg>
