<svg width="115" height="115" viewBox="0 0 115 115" fill="none" xmlns="http://www.w3.org/2000/svg">
<path fill-rule="evenodd" clip-rule="evenodd" d="M57.6917 100.841C76.2162 100.841 91.2333 87.0501 91.2333 70.0378C91.2333 45.596 62.9044 19.2495 58.316 15.1425C57.9475 14.8127 57.4358 14.8127 57.0673 15.1425C52.4789 19.2495 24.15 45.596 24.15 70.0378C24.15 87.0501 39.1671 100.841 57.6917 100.841ZM39.7289 70.0139C39.6876 69.7409 39.4329 69.553 39.1598 69.5942C38.8868 69.6355 38.6989 69.8903 38.7401 70.1633C39.3549 74.2322 41.2629 77.9951 44.1819 80.8956C47.1009 83.7961 50.8759 85.6801 54.9486 86.269C55.2219 86.3086 55.4755 86.1191 55.515 85.8458C55.5545 85.5725 55.365 85.3189 55.0917 85.2793C51.2315 84.7211 47.6535 82.9354 44.8868 80.1862C42.1201 77.4371 40.3116 73.8705 39.7289 70.0139Z" fill="#F4F6FC"/>
</svg>
