<svg width="267" height="22" viewBox="0 0 267 22" fill="none" xmlns="http://www.w3.org/2000/svg">
<path d="M7.25903 8.39764C9.16152 12.6503 7.03453 17.9862 4.9456 21.6428C17.2598 22.2021 27.1857 9.32986 27.3354 9.18146C27.3721 9.06858 27.5218 8.92019 27.5966 8.80857C32.7092 4.07011 40.3585 3.47273 42.5236 3.36111C42.7468 3.32307 42.8964 3.28628 43.1197 3.28628C43.1945 3.28628 43.2693 3.28628 43.3442 3.28628C49.0909 3.65917 51.4412 6.27065 52.3746 8.36085C54.352 12.6503 52.1501 17.9862 50.136 21.6428C62.3006 22.2769 72.451 9.32986 72.5258 9.18146C72.6755 9.06858 72.749 8.92019 72.8987 8.80857C77.8997 4.07011 85.549 3.50951 87.714 3.3979C87.9372 3.36112 88.0869 3.32307 88.3101 3.32307C88.3849 3.32307 88.4598 3.32307 88.5346 3.32307C94.2814 3.69722 96.6316 6.3087 97.5651 8.39764C99.5424 12.6503 97.3406 17.9862 95.4013 21.6428C107.491 22.2769 117.605 9.32986 117.678 9.18146C117.828 9.06858 117.903 8.92019 118.052 8.80857C123.164 4.07011 130.739 3.47273 132.904 3.36111C133.128 3.36111 133.352 3.32307 133.501 3.32307C133.575 3.32307 133.65 3.32307 133.725 3.32307C139.472 3.69722 141.822 6.3087 142.83 8.39764C144.733 12.6503 142.606 17.9862 140.479 21.6428C152.645 22.2769 162.795 9.32986 162.869 9.18146C162.943 9.06858 163.093 8.92019 163.243 8.80857C168.281 4.07011 175.93 3.47273 178.095 3.36111C178.318 3.32307 178.468 3.28628 178.691 3.28628C178.766 3.28628 178.841 3.28628 178.915 3.28628C184.662 3.65917 187.012 6.27065 188.021 8.36085C189.923 12.6503 187.796 17.9862 185.669 21.6428C197.835 22.2769 207.911 9.32986 208.059 9.18146C208.134 9.06858 208.284 8.92019 208.358 8.80857C213.471 4.07011 221.045 3.47273 223.285 3.36111C223.509 3.36111 223.808 3.32307 224.106 3.32307C229.853 3.69722 232.203 6.3087 233.211 8.39764C235.114 12.6503 232.987 17.9862 230.935 21.6428C243.1 22.2021 253.176 9.32986 253.324 9.18146C253.399 9.06858 253.474 8.92019 253.624 8.80857C257.467 5.22682 262.877 3.99528 266.161 3.58434V0.488358H0.878082V3.69722C4.64628 4.59266 6.40037 6.68159 7.25903 8.39764Z" fill="#F4F6FC"/>
</svg>
