<svg width="32" height="32" viewBox="0 0 32 32" fill="none" xmlns="http://www.w3.org/2000/svg">
<path fill-rule="evenodd" clip-rule="evenodd" d="M3.54534 3.54537C2.66666 4.42405 2.66666 5.83826 2.66666 8.66668V23.3334C2.66666 26.1618 2.66666 27.576 3.54534 28.4547C4.42402 29.3334 5.83823 29.3334 8.66665 29.3334H23.3333C26.1617 29.3334 27.576 29.3334 28.4546 28.4547C29.3333 27.576 29.3333 26.1618 29.3333 23.3334V8.66669C29.3333 5.83826 29.3333 4.42405 28.4546 3.54537C27.576 2.66669 26.1618 2.66669 23.3333 2.66669H8.66666C5.83823 2.66669 4.42402 2.66669 3.54534 3.54537ZM23.4987 12.5547C23.8051 12.0952 23.6809 11.4743 23.2214 11.168C22.7618 10.8616 22.141 10.9858 21.8346 11.4453L17.4571 18.0115L16.3317 15.7607C15.645 14.3872 13.7306 14.268 12.8788 15.5458L8.50128 22.112C8.19492 22.5715 8.3191 23.1924 8.77863 23.4987C9.23815 23.8051 9.85902 23.6809 10.1654 23.2214L14.5429 16.6552L15.6683 18.906C16.355 20.2795 18.2694 20.3987 19.1212 19.1209L23.4987 12.5547Z" fill="#9999A7"/>
</svg>
