<svg width="28" height="37" viewBox="0 0 28 37" fill="none" xmlns="http://www.w3.org/2000/svg">
<path fill-rule="evenodd" clip-rule="evenodd" d="M0 8.58331C0 4.81208 0 2.92646 1.17157 1.75489C2.34315 0.583313 4.22876 0.583313 8 0.583313H20C23.7712 0.583313 25.6569 0.583313 26.8284 1.75489C28 2.92646 28 4.81208 28 8.58331V22.969C26.8188 21.9766 25.3003 21.375 23.625 21.375C19.7729 21.375 16.75 24.5554 16.75 28.3541C16.75 32.1529 19.7729 35.3333 23.625 35.3333C24.6097 35.3333 25.5403 35.1255 26.38 34.7526L26.8448 35.2285L26.8284 35.2451C25.6569 36.4166 23.7712 36.4166 20 36.4166H8C4.22876 36.4166 2.34315 36.4166 1.17157 35.2451C0 34.0735 0 32.1879 0 28.4166V8.58331ZM23.625 26.375C22.6446 26.375 21.75 27.2053 21.75 28.3541C21.75 29.503 22.6446 30.3333 23.625 30.3333C24.6054 30.3333 25.5 29.503 25.5 28.3541C25.5 27.2053 24.6054 26.375 23.625 26.375ZM7 6.74998C6.44772 6.74998 6 7.19769 6 7.74998C6 8.30226 6.44772 8.74998 7 8.74998H14C14.5523 8.74998 15 8.30226 15 7.74998C15 7.19769 14.5523 6.74998 14 6.74998H7ZM7 13.9166C6.44772 13.9166 6 14.3644 6 14.9166C6 15.4689 6.44772 15.9166 7 15.9166H17.5C18.0523 15.9166 18.5 15.4689 18.5 14.9166C18.5 14.3644 18.0523 13.9166 17.5 13.9166H7ZM7 21.0833C6.44772 21.0833 6 21.531 6 22.0833C6 22.6356 6.44772 23.0833 7 23.0833H12.25C12.8023 23.0833 13.25 22.6356 13.25 22.0833C13.25 21.531 12.8023 21.0833 12.25 21.0833H7Z" fill="#F4F6FC"/>
</svg>
