<svg width="117" height="10" viewBox="0 0 117 10" fill="none" xmlns="http://www.w3.org/2000/svg">
<path d="M2.86232 3.49334C3.69421 5.35289 2.76416 7.68605 1.85075 9.28494C7.23527 9.52951 11.5755 3.90097 11.6409 3.83608C11.657 3.78672 11.7225 3.72183 11.7552 3.67303C13.9907 1.60108 17.3355 1.33986 18.2822 1.29106C18.3798 1.27442 18.4452 1.25834 18.5428 1.25834C18.5756 1.25834 18.6083 1.25834 18.641 1.25834C21.1538 1.42139 22.1815 2.56329 22.5897 3.47726C23.4543 5.35289 22.4915 7.68605 21.6108 9.28494C26.9299 9.56223 31.3683 3.90097 31.401 3.83608C31.4665 3.78672 31.4986 3.72183 31.5641 3.67303C33.7508 1.60108 37.0956 1.35595 38.0423 1.30714C38.1399 1.29106 38.2053 1.27442 38.3029 1.27442C38.3356 1.27442 38.3684 1.27442 38.4011 1.27442C40.9139 1.43803 41.9416 2.57993 42.3498 3.49334C43.2144 5.35289 42.2516 7.68605 41.4036 9.28494C46.69 9.56223 51.1123 3.90097 51.1445 3.83608C51.2099 3.78672 51.2426 3.72183 51.3081 3.67303C53.5431 1.60108 56.8557 1.33986 57.8023 1.29106C57.8999 1.29106 57.9981 1.27442 58.063 1.27442C58.0957 1.27442 58.1284 1.27442 58.1612 1.27442C60.674 1.43803 61.7017 2.57993 62.1426 3.49334C62.9745 5.35289 62.0444 7.68605 61.1144 9.28494C66.434 9.56223 70.8724 3.90097 70.9046 3.83608C70.9373 3.78672 71.0027 3.72183 71.0682 3.67303C73.271 1.60108 76.6157 1.33986 77.5624 1.29106C77.66 1.27442 77.7255 1.25834 77.8231 1.25834C77.8558 1.25834 77.8885 1.25834 77.9212 1.25834C80.4341 1.42139 81.4617 2.56329 81.9026 3.47726C82.7345 5.35289 81.8045 7.68605 80.8744 9.28494C86.1941 9.56223 90.5997 3.90097 90.6646 3.83608C90.6974 3.78672 90.7628 3.72183 90.7955 3.67303C93.0311 1.60108 96.3431 1.33986 97.3225 1.29106C97.4201 1.29106 97.551 1.27442 97.6813 1.27442C100.194 1.43803 101.222 2.57993 101.663 3.49334C102.495 5.35289 101.565 7.68605 100.667 9.28494C105.987 9.52951 110.393 3.90097 110.457 3.83608C110.49 3.78672 110.523 3.72183 110.588 3.67303C112.269 2.10686 114.635 1.56836 116.07 1.38867V0.0349121H0.0721741V1.43803C1.71986 1.82957 2.48686 2.74298 2.86232 3.49334Z" fill="#9999A7"/>
</svg>
