<svg width="278" height="77" viewBox="0 0 278 77" fill="none" xmlns="http://www.w3.org/2000/svg">
<rect width="4" height="76" fill="#403F40"/>
<rect x="14" y="11.5151" width="4" height="52.9697" fill="#403F40"/>
<rect x="29" y="11.5151" width="4" height="52.9697" fill="#403F40"/>
<rect x="43" y="11.5151" width="4" height="52.9697" fill="#403F40"/>
<rect x="58" y="11.5151" width="4" height="52.9697" fill="#403F40"/>
<rect x="72" y="11.5151" width="4" height="52.9697" fill="#403F40"/>
<rect x="86" y="11.5151" width="4" height="52.9697" fill="#403F40"/>
<rect x="101" y="11.5151" width="4" height="52.9697" fill="#403F40"/>
<rect x="115" y="11.5151" width="4" height="52.9697" fill="#403F40"/>
<rect x="130" y="11.5151" width="4" height="52.9697" fill="#403F40"/>
<rect x="144" y="11.5151" width="4" height="52.9697" fill="#403F40"/>
<rect x="158" y="11.5151" width="4" height="52.9697" fill="#403F40"/>
<rect x="173" y="11.5151" width="4" height="52.9697" fill="#403F40"/>
<rect x="187" y="11.5151" width="4" height="52.9697" fill="#403F40"/>
<rect x="202" y="11.5151" width="4" height="52.9697" fill="#403F40"/>
<rect x="216" y="11.5151" width="4" height="52.9697" fill="#403F40"/>
<rect x="230" y="11.5151" width="4" height="52.9697" fill="#403F40"/>
<rect x="245" y="11.5151" width="4" height="52.9697" fill="#403F40"/>
<rect x="259" y="11.5151" width="4" height="52.9697" fill="#403F40"/>
<rect x="274" width="4" height="76" fill="#403F40"/>
<path d="M230.732 64.581C231.387 63.8029 232.672 63.807 233.323 64.5892L241.663 74.6018C242.483 75.587 241.714 77.0043 240.361 77L223.632 76.9472C222.279 76.9429 221.516 75.5209 222.342 74.5408L230.732 64.581Z" fill="#950952"/>
</svg>
