<svg width="80" height="80" viewBox="0 0 80 80" fill="none" xmlns="http://www.w3.org/2000/svg">
<rect width="80" height="80" rx="20" fill="#1A1F37"/>
<path d="M65.6383 31C65.9802 31.8763 65.6917 32.8534 64.9545 33.4779L60.3279 37.4466C60.4455 38.2826 60.5096 39.1388 60.5096 40.005C60.5096 40.8713 60.4455 41.7275 60.3279 42.5635L64.9545 46.5322C65.6917 47.1567 65.9802 48.1338 65.6383 49.0101C65.1682 50.2088 64.6019 51.357 63.9501 52.4651L63.4479 53.2809C62.7427 54.389 61.952 55.4365 61.0866 56.4237C60.4562 57.1489 59.409 57.3906 58.4688 57.1086L52.5173 55.3257C51.0855 56.3632 49.5042 57.2295 47.816 57.8842L46.4804 63.6358C46.2667 64.5524 45.5187 65.2776 44.5357 65.4287C43.0612 65.6604 41.544 65.7812 39.9947 65.7812C38.4454 65.7812 36.9281 65.6604 35.4536 65.4287C34.4706 65.2776 33.7226 64.5524 33.5089 63.6358L32.1733 57.8842C30.4851 57.2295 28.9038 56.3632 27.472 55.3257L21.5312 57.1187C20.591 57.4007 19.5438 57.1489 18.9134 56.4337C18.048 55.4466 17.2573 54.399 16.5521 53.291L16.0499 52.4751C15.3981 51.3671 14.8318 50.2188 14.3617 49.0202C14.0198 48.1438 14.3083 47.1668 15.0455 46.5423L19.6721 42.5736C19.5545 41.7275 19.4904 40.8713 19.4904 40.005C19.4904 39.1388 19.5545 38.2826 19.6721 37.4466L15.0455 33.4779C14.3083 32.8534 14.0198 31.8763 14.3617 31C14.8318 29.8013 15.3981 28.653 16.0499 27.545L16.5521 26.7291C17.2573 25.6211 18.048 24.5736 18.9134 23.5864C19.5438 22.8612 20.591 22.6194 21.5312 22.9015L27.4827 24.6844C28.9145 23.6469 30.4958 22.7806 32.184 22.1259L33.5196 16.3743C33.7333 15.4577 34.4813 14.7325 35.4643 14.5814C36.9388 14.3396 38.456 14.2188 40.0053 14.2188C41.5546 14.2188 43.0719 14.3396 44.5464 14.5713C45.5294 14.7224 46.2774 15.4476 46.4911 16.3642L47.8267 22.1158C49.5149 22.7705 51.0962 23.6368 52.528 24.6743L58.4795 22.8914C59.4197 22.6094 60.4668 22.8612 61.0973 23.5764C61.9627 24.5635 62.7534 25.6111 63.4586 26.7191L63.9608 27.535C64.6126 28.643 65.1789 29.7913 65.649 30.9899L65.6383 31ZM40.0053 48.0633C42.2724 48.0633 44.4466 47.2143 46.0496 45.7031C47.6526 44.1918 48.5532 42.1422 48.5532 40.005C48.5532 37.8679 47.6526 35.8182 46.0496 34.307C44.4466 32.7958 42.2724 31.9468 40.0053 31.9468C37.7383 31.9468 35.5641 32.7958 33.9611 34.307C32.358 35.8182 31.4575 37.8679 31.4575 40.005C31.4575 42.1422 32.358 44.1918 33.9611 45.7031C35.5641 47.2143 37.7383 48.0633 40.0053 48.0633Z" fill="#F4F6FC"/>
</svg>
