<svg width="115" height="115" viewBox="0 0 115 115" fill="none" xmlns="http://www.w3.org/2000/svg">
<path d="M57.0669 15.1424C57.4353 14.8126 57.9474 14.8127 58.3159 15.1424C62.9043 19.2494 91.2328 45.5961 91.2329 70.0379C91.2329 87.0502 76.2163 100.841 57.6919 100.842C39.1673 100.842 24.1499 87.0503 24.1499 70.0379C24.15 45.5962 52.4783 19.2496 57.0669 15.1424ZM39.2349 70.0897L38.7397 70.1639C39.3546 74.2326 41.2632 77.9959 44.1821 80.8963C47.0099 83.706 50.6411 85.5622 54.5679 86.2108L54.9487 86.2694L55.0493 86.2743C55.2815 86.2609 55.4803 86.0855 55.5151 85.8465C55.5497 85.6075 55.4086 85.3833 55.1899 85.3045L55.0913 85.2801L54.3716 85.161C50.7876 84.4948 47.4801 82.7637 44.8862 80.1864C42.1199 77.4374 40.3118 73.8707 39.729 70.0145L39.2349 70.0897ZM39.1597 69.5946C38.8867 69.6359 38.6985 69.8909 38.7397 70.1639L39.729 70.0145C39.6877 69.7414 39.4327 69.5533 39.1597 69.5946Z" fill="#F4F6FC"/>
</svg>
