<svg width="115" height="115" viewBox="0 0 115 115" fill="none" xmlns="http://www.w3.org/2000/svg">
<g clip-path="url(#clip0_168_240)">
<path d="M1.86229 80.4933C2.69418 82.3529 1.76413 84.686 0.850717 86.2849C6.23524 86.5295 10.5755 80.901 10.6409 80.8361C10.657 80.7867 10.7224 80.7218 10.7552 80.673C12.9907 78.6011 16.3355 78.3399 17.2821 78.2911C17.3797 78.2744 17.4452 78.2583 17.5428 78.2583C17.5755 78.2583 17.6082 78.2583 17.641 78.2583C20.1538 78.4214 21.1815 79.5633 21.5896 80.4773C22.4543 82.3529 21.4915 84.686 20.6108 86.2849C25.9299 86.5622 30.3683 80.901 30.401 80.8361C30.4664 80.7867 30.4986 80.7218 30.564 80.673C32.7508 78.6011 36.0955 78.3559 37.0422 78.3071C37.1398 78.2911 37.2053 78.2744 37.3029 78.2744C37.3356 78.2744 37.3683 78.2744 37.401 78.2744C39.9139 78.438 40.9415 79.5799 41.3497 80.4933C42.2143 82.3529 41.2516 84.686 40.4036 86.2849C45.69 86.5622 50.1123 80.901 50.1444 80.8361C50.2099 80.7867 50.2426 80.7218 50.308 80.673C52.543 78.6011 55.8556 78.3399 56.8023 78.2911C56.8999 78.2911 56.9981 78.2744 57.063 78.2744C57.0957 78.2744 57.1284 78.2744 57.1611 78.2744C59.674 78.438 60.7016 79.5799 61.1425 80.4933C61.9744 82.3529 61.0444 84.686 60.1143 86.2849C65.434 86.5622 69.8723 80.901 69.9045 80.8361C69.9372 80.7867 70.0027 80.7218 70.0681 80.673C72.271 78.6011 75.6157 78.3399 76.5624 78.2911C76.66 78.2744 76.7254 78.2583 76.823 78.2583C76.8558 78.2583 76.8885 78.2583 76.9212 78.2583C79.434 78.4214 80.4617 79.5633 80.9026 80.4773C81.7345 82.3529 80.8044 84.686 79.8744 86.2849C85.194 86.5622 89.5997 80.901 89.6646 80.8361C89.6973 80.7867 89.7627 80.7218 89.7955 80.673C92.031 78.6011 95.343 78.3399 96.3224 78.2911C96.4201 78.2911 96.5509 78.2744 96.6813 78.2744C99.1941 78.438 100.222 79.5799 100.663 80.4933C101.495 82.3529 100.565 84.686 99.6672 86.2849C104.987 86.5295 109.392 80.901 109.457 80.8361C109.49 80.7867 109.523 80.7218 109.588 80.673C111.269 79.1069 113.635 78.5684 115.07 78.3887V77.0349H-0.927856V78.438C0.719833 78.8296 1.48683 79.743 1.86229 80.4933Z" fill="#F4F6FC"/>
<mask id="mask0_168_240" style="mask-type:luminance" maskUnits="userSpaceOnUse" x="0" y="59" width="115" height="22">
<path d="M0 59.506H115V80.729H0V59.506Z" fill="white"/>
</mask>
<g mask="url(#mask0_168_240)">
<path d="M0 59.2669H115.024V80.729H0V59.2669Z" fill="#F4F6FC"/>
</g>
<path d="M57.5 11.5C44.8159 11.5 34.5044 21.8204 34.5044 34.5044C34.5044 47.189 44.8159 57.5 57.5 57.5C70.184 57.5 80.4955 47.189 80.4955 34.5044C80.4955 21.8204 70.184 11.5 57.5 11.5ZM57.5 53.7748C46.8762 53.7748 38.2296 45.1287 38.2296 34.5044C38.2296 23.8807 46.8762 15.2346 57.5 15.2346C68.1237 15.2346 76.7703 23.8807 76.7703 34.5044C76.7703 45.1287 68.1237 53.7748 57.5 53.7748Z" fill="#F4F6FC"/>
<path d="M67.7378 33.8145L51.4383 24.4048C50.9143 24.1014 50.2521 24.4786 50.2521 25.0858V43.9142C50.2521 44.5215 50.9143 44.8986 51.4383 44.5952L67.7467 35.1855C68.2713 34.8816 68.2713 34.1185 67.7378 33.8145Z" fill="#F4F6FC"/>
</g>
<defs>
<clipPath id="clip0_168_240">
<rect width="115" height="115" fill="white"/>
</clipPath>
</defs>
</svg>
