<svg width="115" height="115" viewBox="0 0 115 115" fill="none" xmlns="http://www.w3.org/2000/svg">
<g clip-path="url(#clip0_209_108)">
<path d="M102.118 58.467L110.141 54.1187L87.3125 12L79.2899 16.3483L85.8123 28.3822L72.1738 35.7743L66.5058 31.0617L64.5002 32.1487L70.1683 36.8613L64.1512 40.1226L58.4831 35.41L56.4776 36.497L62.1456 41.2096L56.1285 44.4709L50.4605 39.7583L48.4549 40.8453L54.123 45.5579L48.1059 48.8191L42.4379 44.1065L40.4323 45.1936L46.1002 49.9063L40.0833 53.1674L34.4152 48.4548L32.4097 49.5418L38.0775 54.2545L32.0607 57.5157L26.3926 52.8031L24.387 53.8901L30.0549 58.6028L24.038 61.864L18.37 57.1514L16.3644 58.2384L22.0323 62.9511L10.6001 69.1474L6.55005 83.3435L20.3836 87.1982L39.0364 77.0883L44.7043 81.8011L46.71 80.7139L41.042 76.0013L47.059 72.7401L52.7269 77.4528L54.7326 76.3657L49.0646 71.6531L55.0817 68.3918L60.7495 73.1045L62.7553 72.0174L57.0872 67.3048L63.1041 64.0436L68.7721 68.7562L70.7779 67.6691L65.1098 62.9565L71.1267 59.6953L76.7948 64.4079L78.8005 63.3208L73.1325 58.6082L79.1494 55.3471L84.8174 60.0597L86.8232 58.9725L81.1551 54.2599L87.172 50.9988L92.84 55.7114L94.8458 54.6243L89.1777 49.9117L95.5959 46.433L102.118 58.467Z" fill="#F4F6FC"/>
</g>
<defs>
<clipPath id="clip0_209_108">
<rect width="115" height="115" fill="white"/>
</clipPath>
</defs>
</svg>
