<svg width="92" height="91" viewBox="0 0 92 91" fill="none" xmlns="http://www.w3.org/2000/svg">
<g filter="url(#filter0_d_173_120)">
<rect x="6" y="2" width="80" height="80" rx="20" fill="#1A1F37"/>
<ellipse cx="59.75" cy="55.9792" rx="6.25" ry="6.35417" stroke="#F4F6FC" stroke-width="2"/>
<path d="M68.5 64.875L64.75 61.0625" stroke="#F4F6FC" stroke-width="2" stroke-linecap="round"/>
<path d="M58.0004 16.5837C61.7712 16.5837 63.6569 16.5832 64.8285 17.7546C66.0001 18.9261 66.0004 20.8124 66.0004 24.5837V49.7848C64.4182 48.148 62.2114 47.1248 59.7504 47.1247C54.8792 47.1247 51.0005 51.1284 51.0004 55.9792C51.0005 60.8299 54.8792 64.8327 59.7504 64.8327C61.2607 64.8326 62.6751 64.4468 63.9086 63.7712L65.4486 65.3366C65.2907 65.6833 65.0906 65.9827 64.8285 66.2448C63.657 67.4163 61.7714 67.4167 58.0004 67.4167H34.0004C30.2291 67.4167 28.3428 67.4164 27.1713 66.2448C26 65.0732 26.0004 63.1875 26.0004 59.4167V24.5837C26.0004 20.8124 25.9997 18.9261 27.1713 17.7546C28.3428 16.583 30.2291 16.5837 34.0004 16.5837H58.0004ZM59.7504 52.1247C61.7824 52.1249 63.5002 53.8117 63.5004 55.9792C63.5002 58.1466 61.7824 59.8325 59.7504 59.8327C57.7182 59.8327 56.0005 58.1467 56.0004 55.9792C56.0005 53.8116 57.7182 52.1247 59.7504 52.1247ZM36.0004 46.0827C35.4483 46.0827 35.0007 46.5307 35.0004 47.0827C35.0004 47.635 35.4481 48.0827 36.0004 48.0827H43.5004L43.6029 48.0778C44.1068 48.0263 44.5004 47.6002 44.5004 47.0827C44.5 46.5654 44.1067 46.14 43.6029 46.0885L43.5004 46.0827H36.0004ZM36.0004 35.9167C35.4482 35.9167 35.0005 36.3645 35.0004 36.9167C35.0005 37.4688 35.4482 37.9167 36.0004 37.9167H51.0004L51.1029 37.9108C51.6067 37.8593 52.0002 37.434 52.0004 36.9167C52.0002 36.3992 51.6068 35.973 51.1029 35.9215L51.0004 35.9167H36.0004ZM36.0004 25.7497C35.4482 25.7497 35.0005 26.1975 35.0004 26.7497C35.0004 27.302 35.4481 27.7497 36.0004 27.7497H46.0004C46.5525 27.7495 47.0004 27.3018 47.0004 26.7497C47.0002 26.1976 46.5524 25.7498 46.0004 25.7497H36.0004Z" fill="#F4F6FC"/>
</g>
<defs>
<filter id="filter0_d_173_120" x="0.5" y="-2.38419e-07" width="91" height="91" filterUnits="userSpaceOnUse" color-interpolation-filters="sRGB">
<feFlood flood-opacity="0" result="BackgroundImageFix"/>
<feColorMatrix in="SourceAlpha" type="matrix" values="0 0 0 0 0 0 0 0 0 0 0 0 0 0 0 0 0 0 127 0" result="hardAlpha"/>
<feOffset dy="3.5"/>
<feGaussianBlur stdDeviation="2.75"/>
<feColorMatrix type="matrix" values="0 0 0 0 0 0 0 0 0 0 0 0 0 0 0 0 0 0 0.02 0"/>
<feBlend mode="normal" in2="BackgroundImageFix" result="effect1_dropShadow_173_120"/>
<feBlend mode="normal" in="SourceGraphic" in2="effect1_dropShadow_173_120" result="shape"/>
</filter>
</defs>
</svg>
